<?xml version="1.0" encoding="utf-8"?>
<svg xmlns="http://www.w3.org/2000/svg" xmlns:xlink="http://www.w3.org/1999/xlink" width="600" height="400" viewBox="0 0 2400 1600">
<defs>
  <clipPath id="clip900">
    <rect x="0" y="0" width="2400" height="1600"/>
  </clipPath>
</defs>
<path clip-path="url(#clip900)" d="M0 1600 L2400 1600 L2400 0 L0 0  Z" fill="#ffffff" fill-rule="evenodd" fill-opacity="1"/>
<defs>
  <clipPath id="clip901">
    <rect x="480" y="0" width="1681" height="1600"/>
  </clipPath>
</defs>
<path clip-path="url(#clip900)" d="M102.74 1505.26 L2352.76 1505.26 L2352.76 118.419 L102.74 118.419  Z" fill="#ffffff" fill-rule="evenodd" fill-opacity="1"/>
<defs>
  <clipPath id="clip902">
    <rect x="102" y="118" width="2251" height="1388"/>
  </clipPath>
</defs>
<polyline clip-path="url(#clip902)" style="stroke:#000000; stroke-linecap:round; stroke-linejoin:round; stroke-width:2; stroke-opacity:0.1; fill:none" points="129.067,1505.26 129.067,118.419 "/>
<polyline clip-path="url(#clip902)" style="stroke:#000000; stroke-linecap:round; stroke-linejoin:round; stroke-width:2; stroke-opacity:0.1; fill:none" points="559.55,1505.26 559.55,118.419 "/>
<polyline clip-path="url(#clip902)" style="stroke:#000000; stroke-linecap:round; stroke-linejoin:round; stroke-width:2; stroke-opacity:0.1; fill:none" points="990.033,1505.26 990.033,118.419 "/>
<polyline clip-path="url(#clip902)" style="stroke:#000000; stroke-linecap:round; stroke-linejoin:round; stroke-width:2; stroke-opacity:0.1; fill:none" points="1420.52,1505.26 1420.52,118.419 "/>
<polyline clip-path="url(#clip902)" style="stroke:#000000; stroke-linecap:round; stroke-linejoin:round; stroke-width:2; stroke-opacity:0.1; fill:none" points="1851,1505.26 1851,118.419 "/>
<polyline clip-path="url(#clip902)" style="stroke:#000000; stroke-linecap:round; stroke-linejoin:round; stroke-width:2; stroke-opacity:0.1; fill:none" points="2281.48,1505.26 2281.48,118.419 "/>
<polyline clip-path="url(#clip900)" style="stroke:#000000; stroke-linecap:round; stroke-linejoin:round; stroke-width:4; stroke-opacity:1; fill:none" points="102.74,1505.26 2352.76,1505.26 "/>
<polyline clip-path="url(#clip900)" style="stroke:#000000; stroke-linecap:round; stroke-linejoin:round; stroke-width:4; stroke-opacity:1; fill:none" points="129.067,1505.26 129.067,1486.36 "/>
<polyline clip-path="url(#clip900)" style="stroke:#000000; stroke-linecap:round; stroke-linejoin:round; stroke-width:4; stroke-opacity:1; fill:none" points="559.55,1505.26 559.55,1486.36 "/>
<polyline clip-path="url(#clip900)" style="stroke:#000000; stroke-linecap:round; stroke-linejoin:round; stroke-width:4; stroke-opacity:1; fill:none" points="990.033,1505.26 990.033,1486.36 "/>
<polyline clip-path="url(#clip900)" style="stroke:#000000; stroke-linecap:round; stroke-linejoin:round; stroke-width:4; stroke-opacity:1; fill:none" points="1420.52,1505.26 1420.52,1486.36 "/>
<polyline clip-path="url(#clip900)" style="stroke:#000000; stroke-linecap:round; stroke-linejoin:round; stroke-width:4; stroke-opacity:1; fill:none" points="1851,1505.26 1851,1486.36 "/>
<polyline clip-path="url(#clip900)" style="stroke:#000000; stroke-linecap:round; stroke-linejoin:round; stroke-width:4; stroke-opacity:1; fill:none" points="2281.48,1505.26 2281.48,1486.36 "/>
<path clip-path="url(#clip900)" d="M107.84 1563.72 L124.159 1563.72 L124.159 1567.66 L102.215 1567.66 L102.215 1563.72 Q104.877 1560.97 109.46 1556.34 Q114.067 1551.69 115.247 1550.35 Q117.493 1547.82 118.372 1546.09 Q119.275 1544.33 119.275 1542.64 Q119.275 1539.88 117.33 1538.15 Q115.409 1536.41 112.307 1536.41 Q110.108 1536.41 107.655 1537.17 Q105.224 1537.94 102.446 1539.49 L102.446 1534.77 Q105.27 1533.63 107.724 1533.05 Q110.178 1532.47 112.215 1532.47 Q117.585 1532.47 120.78 1535.16 Q123.974 1537.85 123.974 1542.34 Q123.974 1544.47 123.164 1546.39 Q122.377 1548.28 120.27 1550.88 Q119.692 1551.55 116.59 1554.77 Q113.488 1557.96 107.84 1563.72 Z" fill="#000000" fill-rule="nonzero" fill-opacity="1" /><path clip-path="url(#clip900)" d="M143.974 1536.18 Q140.363 1536.18 138.534 1539.74 Q136.729 1543.28 136.729 1550.41 Q136.729 1557.52 138.534 1561.09 Q140.363 1564.63 143.974 1564.63 Q147.608 1564.63 149.414 1561.09 Q151.242 1557.52 151.242 1550.41 Q151.242 1543.28 149.414 1539.74 Q147.608 1536.18 143.974 1536.18 M143.974 1532.47 Q149.784 1532.47 152.84 1537.08 Q155.918 1541.66 155.918 1550.41 Q155.918 1559.14 152.84 1563.75 Q149.784 1568.33 143.974 1568.33 Q138.164 1568.33 135.085 1563.75 Q132.029 1559.14 132.029 1550.41 Q132.029 1541.66 135.085 1537.08 Q138.164 1532.47 143.974 1532.47 Z" fill="#000000" fill-rule="nonzero" fill-opacity="1" /><path clip-path="url(#clip900)" d="M538.821 1563.72 L555.14 1563.72 L555.14 1567.66 L533.196 1567.66 L533.196 1563.72 Q535.858 1560.97 540.441 1556.34 Q545.048 1551.69 546.228 1550.35 Q548.474 1547.82 549.353 1546.09 Q550.256 1544.33 550.256 1542.64 Q550.256 1539.88 548.311 1538.15 Q546.39 1536.41 543.288 1536.41 Q541.089 1536.41 538.636 1537.17 Q536.205 1537.94 533.427 1539.49 L533.427 1534.77 Q536.251 1533.63 538.705 1533.05 Q541.159 1532.47 543.196 1532.47 Q548.566 1532.47 551.761 1535.16 Q554.955 1537.85 554.955 1542.34 Q554.955 1544.47 554.145 1546.39 Q553.358 1548.28 551.251 1550.88 Q550.673 1551.55 547.571 1554.77 Q544.469 1557.96 538.821 1563.72 Z" fill="#000000" fill-rule="nonzero" fill-opacity="1" /><path clip-path="url(#clip900)" d="M565.001 1533.1 L583.358 1533.1 L583.358 1537.04 L569.284 1537.04 L569.284 1545.51 Q570.302 1545.16 571.321 1545 Q572.339 1544.81 573.358 1544.81 Q579.145 1544.81 582.524 1547.98 Q585.904 1551.16 585.904 1556.57 Q585.904 1562.15 582.432 1565.25 Q578.959 1568.33 572.64 1568.33 Q570.464 1568.33 568.196 1567.96 Q565.95 1567.59 563.543 1566.85 L563.543 1562.15 Q565.626 1563.28 567.848 1563.84 Q570.071 1564.4 572.547 1564.4 Q576.552 1564.4 578.89 1562.29 Q581.228 1560.18 581.228 1556.57 Q581.228 1552.96 578.89 1550.85 Q576.552 1548.75 572.547 1548.75 Q570.672 1548.75 568.797 1549.16 Q566.946 1549.58 565.001 1550.46 L565.001 1533.1 Z" fill="#000000" fill-rule="nonzero" fill-opacity="1" /><path clip-path="url(#clip900)" d="M978.876 1549.03 Q982.232 1549.74 984.107 1552.01 Q986.005 1554.28 986.005 1557.61 Q986.005 1562.73 982.487 1565.53 Q978.968 1568.33 972.487 1568.33 Q970.311 1568.33 967.996 1567.89 Q965.705 1567.47 963.251 1566.62 L963.251 1562.1 Q965.195 1563.24 967.51 1563.82 Q969.825 1564.4 972.348 1564.4 Q976.746 1564.4 979.038 1562.66 Q981.353 1560.92 981.353 1557.61 Q981.353 1554.56 979.2 1552.85 Q977.07 1551.11 973.251 1551.11 L969.223 1551.11 L969.223 1547.27 L973.436 1547.27 Q976.885 1547.27 978.714 1545.9 Q980.542 1544.51 980.542 1541.92 Q980.542 1539.26 978.644 1537.85 Q976.769 1536.41 973.251 1536.41 Q971.33 1536.41 969.131 1536.83 Q966.931 1537.24 964.293 1538.12 L964.293 1533.96 Q966.955 1533.22 969.269 1532.85 Q971.607 1532.47 973.668 1532.47 Q978.992 1532.47 982.093 1534.91 Q985.195 1537.31 985.195 1541.43 Q985.195 1544.3 983.552 1546.29 Q981.908 1548.26 978.876 1549.03 Z" fill="#000000" fill-rule="nonzero" fill-opacity="1" /><path clip-path="url(#clip900)" d="M1004.87 1536.18 Q1001.26 1536.18 999.431 1539.74 Q997.626 1543.28 997.626 1550.41 Q997.626 1557.52 999.431 1561.09 Q1001.26 1564.63 1004.87 1564.63 Q1008.51 1564.63 1010.31 1561.09 Q1012.14 1557.52 1012.14 1550.41 Q1012.14 1543.28 1010.31 1539.74 Q1008.51 1536.18 1004.87 1536.18 M1004.87 1532.47 Q1010.68 1532.47 1013.74 1537.08 Q1016.82 1541.66 1016.82 1550.41 Q1016.82 1559.14 1013.74 1563.75 Q1010.68 1568.33 1004.87 1568.33 Q999.061 1568.33 995.982 1563.75 Q992.927 1559.14 992.927 1550.41 Q992.927 1541.66 995.982 1537.08 Q999.061 1532.47 1004.87 1532.47 Z" fill="#000000" fill-rule="nonzero" fill-opacity="1" /><path clip-path="url(#clip900)" d="M1409.86 1549.03 Q1413.21 1549.74 1415.09 1552.01 Q1416.99 1554.28 1416.99 1557.61 Q1416.99 1562.73 1413.47 1565.53 Q1409.95 1568.33 1403.47 1568.33 Q1401.29 1568.33 1398.98 1567.89 Q1396.69 1567.47 1394.23 1566.62 L1394.23 1562.1 Q1396.18 1563.24 1398.49 1563.82 Q1400.81 1564.4 1403.33 1564.4 Q1407.73 1564.4 1410.02 1562.66 Q1412.33 1560.92 1412.33 1557.61 Q1412.33 1554.56 1410.18 1552.85 Q1408.05 1551.11 1404.23 1551.11 L1400.2 1551.11 L1400.2 1547.27 L1404.42 1547.27 Q1407.87 1547.27 1409.69 1545.9 Q1411.52 1544.51 1411.52 1541.92 Q1411.52 1539.26 1409.63 1537.85 Q1407.75 1536.41 1404.23 1536.41 Q1402.31 1536.41 1400.11 1536.83 Q1397.91 1537.24 1395.27 1538.12 L1395.27 1533.96 Q1397.94 1533.22 1400.25 1532.85 Q1402.59 1532.47 1404.65 1532.47 Q1409.97 1532.47 1413.07 1534.91 Q1416.18 1537.31 1416.18 1541.43 Q1416.18 1544.3 1414.53 1546.29 Q1412.89 1548.26 1409.86 1549.03 Z" fill="#000000" fill-rule="nonzero" fill-opacity="1" /><path clip-path="url(#clip900)" d="M1425.9 1533.1 L1444.25 1533.1 L1444.25 1537.04 L1430.18 1537.04 L1430.18 1545.51 Q1431.2 1545.16 1432.22 1545 Q1433.24 1544.81 1434.25 1544.81 Q1440.04 1544.81 1443.42 1547.98 Q1446.8 1551.16 1446.8 1556.57 Q1446.8 1562.15 1443.33 1565.25 Q1439.86 1568.33 1433.54 1568.33 Q1431.36 1568.33 1429.09 1567.96 Q1426.85 1567.59 1424.44 1566.85 L1424.44 1562.15 Q1426.52 1563.28 1428.75 1563.84 Q1430.97 1564.4 1433.44 1564.4 Q1437.45 1564.4 1439.79 1562.29 Q1442.13 1560.18 1442.13 1556.57 Q1442.13 1552.96 1439.79 1550.85 Q1437.45 1548.75 1433.44 1548.75 Q1431.57 1548.75 1429.69 1549.16 Q1427.84 1549.58 1425.9 1550.46 L1425.9 1533.1 Z" fill="#000000" fill-rule="nonzero" fill-opacity="1" /><path clip-path="url(#clip900)" d="M1839.17 1537.17 L1827.37 1555.62 L1839.17 1555.62 L1839.17 1537.17 M1837.94 1533.1 L1843.82 1533.1 L1843.82 1555.62 L1848.75 1555.62 L1848.75 1559.51 L1843.82 1559.51 L1843.82 1567.66 L1839.17 1567.66 L1839.17 1559.51 L1823.57 1559.51 L1823.57 1555 L1837.94 1533.1 Z" fill="#000000" fill-rule="nonzero" fill-opacity="1" /><path clip-path="url(#clip900)" d="M1866.49 1536.18 Q1862.87 1536.18 1861.05 1539.74 Q1859.24 1543.28 1859.24 1550.41 Q1859.24 1557.52 1861.05 1561.09 Q1862.87 1564.63 1866.49 1564.63 Q1870.12 1564.63 1871.93 1561.09 Q1873.75 1557.52 1873.75 1550.41 Q1873.75 1543.28 1871.93 1539.74 Q1870.12 1536.18 1866.49 1536.18 M1866.49 1532.47 Q1872.3 1532.47 1875.35 1537.08 Q1878.43 1541.66 1878.43 1550.41 Q1878.43 1559.14 1875.35 1563.75 Q1872.3 1568.33 1866.49 1568.33 Q1860.68 1568.33 1857.6 1563.75 Q1854.54 1559.14 1854.54 1550.41 Q1854.54 1541.66 1857.6 1537.08 Q1860.68 1532.47 1866.49 1532.47 Z" fill="#000000" fill-rule="nonzero" fill-opacity="1" /><path clip-path="url(#clip900)" d="M2270.15 1537.17 L2258.35 1555.62 L2270.15 1555.62 L2270.15 1537.17 M2268.93 1533.1 L2274.8 1533.1 L2274.8 1555.62 L2279.74 1555.62 L2279.74 1559.51 L2274.8 1559.51 L2274.8 1567.66 L2270.15 1567.66 L2270.15 1559.51 L2254.55 1559.51 L2254.55 1555 L2268.93 1533.1 Z" fill="#000000" fill-rule="nonzero" fill-opacity="1" /><path clip-path="url(#clip900)" d="M2287.51 1533.1 L2305.87 1533.1 L2305.87 1537.04 L2291.8 1537.04 L2291.8 1545.51 Q2292.81 1545.16 2293.83 1545 Q2294.85 1544.81 2295.87 1544.81 Q2301.66 1544.81 2305.04 1547.98 Q2308.42 1551.16 2308.42 1556.57 Q2308.42 1562.15 2304.94 1565.25 Q2301.47 1568.33 2295.15 1568.33 Q2292.98 1568.33 2290.71 1567.96 Q2288.46 1567.59 2286.05 1566.85 L2286.05 1562.15 Q2288.14 1563.28 2290.36 1563.84 Q2292.58 1564.4 2295.06 1564.4 Q2299.06 1564.4 2301.4 1562.29 Q2303.74 1560.18 2303.74 1556.57 Q2303.74 1552.96 2301.4 1550.85 Q2299.06 1548.75 2295.06 1548.75 Q2293.18 1548.75 2291.31 1549.16 Q2289.46 1549.58 2287.51 1550.46 L2287.51 1533.1 Z" fill="#000000" fill-rule="nonzero" fill-opacity="1" /><path clip-path="url(#clip900)" d="M1109.71 1614.48 L1115.92 1614.48 L1127.06 1644.39 L1138.2 1614.48 L1144.41 1614.48 L1131.04 1650.12 L1123.08 1650.12 L1109.71 1614.48 Z" fill="#000000" fill-rule="nonzero" fill-opacity="1" /><path clip-path="url(#clip900)" d="M1166.3 1618.58 Q1161.59 1618.58 1158.86 1622.27 Q1156.12 1625.93 1156.12 1632.33 Q1156.12 1638.73 1158.82 1642.42 Q1161.56 1646.08 1166.3 1646.08 Q1170.98 1646.08 1173.72 1642.39 Q1176.46 1638.7 1176.46 1632.33 Q1176.46 1626 1173.72 1622.31 Q1170.98 1618.58 1166.3 1618.58 M1166.3 1613.62 Q1173.94 1613.62 1178.3 1618.58 Q1182.66 1623.55 1182.66 1632.33 Q1182.66 1641.08 1178.3 1646.08 Q1173.94 1651.05 1166.3 1651.05 Q1158.63 1651.05 1154.27 1646.08 Q1149.94 1641.08 1149.94 1632.33 Q1149.94 1623.55 1154.27 1618.58 Q1158.63 1613.62 1166.3 1613.62 Z" fill="#000000" fill-rule="nonzero" fill-opacity="1" /><path clip-path="url(#clip900)" d="M1192.37 1600.6 L1198.23 1600.6 L1198.23 1650.12 L1192.37 1650.12 L1192.37 1600.6 Z" fill="#000000" fill-rule="nonzero" fill-opacity="1" /><path clip-path="url(#clip900)" d="M1209.88 1636.06 L1209.88 1614.48 L1215.73 1614.48 L1215.73 1635.83 Q1215.73 1640.89 1217.71 1643.44 Q1219.68 1645.95 1223.63 1645.95 Q1228.37 1645.95 1231.11 1642.93 Q1233.88 1639.91 1233.88 1634.69 L1233.88 1614.48 L1239.73 1614.48 L1239.73 1650.12 L1233.88 1650.12 L1233.88 1644.65 Q1231.74 1647.9 1228.91 1649.49 Q1226.11 1651.05 1222.38 1651.05 Q1216.24 1651.05 1213.06 1647.23 Q1209.88 1643.41 1209.88 1636.06 M1224.61 1613.62 L1224.61 1613.62 Z" fill="#000000" fill-rule="nonzero" fill-opacity="1" /><path clip-path="url(#clip900)" d="M1279.55 1621.32 Q1281.75 1617.37 1284.8 1615.49 Q1287.86 1613.62 1291.99 1613.62 Q1297.56 1613.62 1300.59 1617.53 Q1303.61 1621.41 1303.61 1628.61 L1303.61 1650.12 L1297.72 1650.12 L1297.72 1628.8 Q1297.72 1623.67 1295.91 1621.19 Q1294.09 1618.71 1290.37 1618.71 Q1285.82 1618.71 1283.18 1621.73 Q1280.54 1624.76 1280.54 1629.98 L1280.54 1650.12 L1274.65 1650.12 L1274.65 1628.8 Q1274.65 1623.64 1272.83 1621.19 Q1271.02 1618.71 1267.23 1618.71 Q1262.74 1618.71 1260.1 1621.76 Q1257.46 1624.79 1257.46 1629.98 L1257.46 1650.12 L1251.57 1650.12 L1251.57 1614.48 L1257.46 1614.48 L1257.46 1620.01 Q1259.47 1616.74 1262.27 1615.18 Q1265.07 1613.62 1268.92 1613.62 Q1272.8 1613.62 1275.51 1615.59 Q1278.24 1617.56 1279.55 1621.32 Z" fill="#000000" fill-rule="nonzero" fill-opacity="1" /><path clip-path="url(#clip900)" d="M1345.78 1630.84 L1345.78 1633.7 L1318.86 1633.7 Q1319.24 1639.75 1322.49 1642.93 Q1325.76 1646.08 1331.59 1646.08 Q1334.96 1646.08 1338.11 1645.25 Q1341.3 1644.43 1344.42 1642.77 L1344.42 1648.31 Q1341.26 1649.65 1337.95 1650.35 Q1334.64 1651.05 1331.24 1651.05 Q1322.71 1651.05 1317.71 1646.08 Q1312.75 1641.12 1312.75 1632.65 Q1312.75 1623.9 1317.46 1618.77 Q1322.2 1613.62 1330.22 1613.62 Q1337.41 1613.62 1341.58 1618.26 Q1345.78 1622.88 1345.78 1630.84 M1339.93 1629.12 Q1339.86 1624.31 1337.22 1621.45 Q1334.61 1618.58 1330.28 1618.58 Q1325.38 1618.58 1322.42 1621.35 Q1319.49 1624.12 1319.05 1629.15 L1339.93 1629.12 Z" fill="#000000" fill-rule="nonzero" fill-opacity="1" /><polyline clip-path="url(#clip902)" style="stroke:#000000; stroke-linecap:round; stroke-linejoin:round; stroke-width:2; stroke-opacity:0.1; fill:none" points="102.74,1233.74 2352.76,1233.74 "/>
<polyline clip-path="url(#clip902)" style="stroke:#000000; stroke-linecap:round; stroke-linejoin:round; stroke-width:2; stroke-opacity:0.1; fill:none" points="102.74,958.955 2352.76,958.955 "/>
<polyline clip-path="url(#clip902)" style="stroke:#000000; stroke-linecap:round; stroke-linejoin:round; stroke-width:2; stroke-opacity:0.1; fill:none" points="102.74,684.172 2352.76,684.172 "/>
<polyline clip-path="url(#clip902)" style="stroke:#000000; stroke-linecap:round; stroke-linejoin:round; stroke-width:2; stroke-opacity:0.1; fill:none" points="102.74,409.389 2352.76,409.389 "/>
<polyline clip-path="url(#clip902)" style="stroke:#000000; stroke-linecap:round; stroke-linejoin:round; stroke-width:2; stroke-opacity:0.1; fill:none" points="102.74,134.606 2352.76,134.606 "/>
<polyline clip-path="url(#clip900)" style="stroke:#000000; stroke-linecap:round; stroke-linejoin:round; stroke-width:4; stroke-opacity:1; fill:none" points="102.74,1505.26 102.74,118.419 "/>
<polyline clip-path="url(#clip900)" style="stroke:#000000; stroke-linecap:round; stroke-linejoin:round; stroke-width:4; stroke-opacity:1; fill:none" points="102.74,1233.74 121.638,1233.74 "/>
<polyline clip-path="url(#clip900)" style="stroke:#000000; stroke-linecap:round; stroke-linejoin:round; stroke-width:4; stroke-opacity:1; fill:none" points="102.74,958.955 121.638,958.955 "/>
<polyline clip-path="url(#clip900)" style="stroke:#000000; stroke-linecap:round; stroke-linejoin:round; stroke-width:4; stroke-opacity:1; fill:none" points="102.74,684.172 121.638,684.172 "/>
<polyline clip-path="url(#clip900)" style="stroke:#000000; stroke-linecap:round; stroke-linejoin:round; stroke-width:4; stroke-opacity:1; fill:none" points="102.74,409.389 121.638,409.389 "/>
<polyline clip-path="url(#clip900)" style="stroke:#000000; stroke-linecap:round; stroke-linejoin:round; stroke-width:4; stroke-opacity:1; fill:none" points="102.74,134.606 121.638,134.606 "/>
<path clip-path="url(#clip900)" d="M6.62474 1234.19 L36.3005 1234.19 L36.3005 1238.13 L6.62474 1238.13 L6.62474 1234.19 Z" fill="#000000" fill-rule="nonzero" fill-opacity="1" /><path clip-path="url(#clip900)" d="M50.4208 1247.08 L66.7402 1247.08 L66.7402 1251.02 L44.7958 1251.02 L44.7958 1247.08 Q47.4579 1244.33 52.0412 1239.7 Q56.6476 1235.05 57.8282 1233.7 Q60.0735 1231.18 60.9532 1229.44 Q61.8559 1227.69 61.8559 1226 Q61.8559 1223.24 59.9115 1221.51 Q57.9902 1219.77 54.8884 1219.77 Q52.6893 1219.77 50.2356 1220.53 Q47.8051 1221.3 45.0273 1222.85 L45.0273 1218.13 Q47.8514 1216.99 50.3051 1216.41 Q52.7588 1215.83 54.7958 1215.83 Q60.1661 1215.83 63.3605 1218.52 Q66.555 1221.2 66.555 1225.69 Q66.555 1227.82 65.7448 1229.75 Q64.9578 1231.64 62.8513 1234.24 Q62.2726 1234.91 59.1708 1238.13 Q56.0689 1241.32 50.4208 1247.08 Z" fill="#000000" fill-rule="nonzero" fill-opacity="1" /><path clip-path="url(#clip900)" d="M54.7958 944.754 Q51.1847 944.754 49.356 948.319 Q47.5504 951.861 47.5504 958.99 Q47.5504 966.097 49.356 969.661 Q51.1847 973.203 54.7958 973.203 Q58.43 973.203 60.2356 969.661 Q62.0643 966.097 62.0643 958.99 Q62.0643 951.861 60.2356 948.319 Q58.43 944.754 54.7958 944.754 M54.7958 941.05 Q60.6059 941.05 63.6615 945.657 Q66.7402 950.24 66.7402 958.99 Q66.7402 967.717 63.6615 972.323 Q60.6059 976.907 54.7958 976.907 Q48.9856 976.907 45.9069 972.323 Q42.8514 967.717 42.8514 958.99 Q42.8514 950.24 45.9069 945.657 Q48.9856 941.05 54.7958 941.05 Z" fill="#000000" fill-rule="nonzero" fill-opacity="1" /><path clip-path="url(#clip900)" d="M50.4208 697.517 L66.7402 697.517 L66.7402 701.452 L44.7958 701.452 L44.7958 697.517 Q47.4579 694.762 52.0412 690.133 Q56.6476 685.48 57.8282 684.137 Q60.0735 681.614 60.9532 679.878 Q61.8559 678.119 61.8559 676.429 Q61.8559 673.675 59.9115 671.938 Q57.9902 670.202 54.8884 670.202 Q52.6893 670.202 50.2356 670.966 Q47.8051 671.73 45.0273 673.281 L45.0273 668.559 Q47.8514 667.425 50.3051 666.846 Q52.7588 666.267 54.7958 666.267 Q60.1661 666.267 63.3605 668.952 Q66.555 671.638 66.555 676.128 Q66.555 678.258 65.7448 680.179 Q64.9578 682.077 62.8513 684.67 Q62.2726 685.341 59.1708 688.559 Q56.0689 691.753 50.4208 697.517 Z" fill="#000000" fill-rule="nonzero" fill-opacity="1" /><path clip-path="url(#clip900)" d="M57.1569 396.183 L45.3514 414.632 L57.1569 414.632 L57.1569 396.183 M55.93 392.109 L61.8096 392.109 L61.8096 414.632 L66.7402 414.632 L66.7402 418.521 L61.8096 418.521 L61.8096 426.669 L57.1569 426.669 L57.1569 418.521 L41.5551 418.521 L41.5551 414.007 L55.93 392.109 Z" fill="#000000" fill-rule="nonzero" fill-opacity="1" /><path clip-path="url(#clip900)" d="M55.2124 132.742 Q52.0643 132.742 50.2125 134.895 Q48.3838 137.048 48.3838 140.798 Q48.3838 144.524 50.2125 146.7 Q52.0643 148.853 55.2124 148.853 Q58.3606 148.853 60.1893 146.7 Q62.0411 144.524 62.0411 140.798 Q62.0411 137.048 60.1893 134.895 Q58.3606 132.742 55.2124 132.742 M64.4948 118.089 L64.4948 122.349 Q62.7355 121.515 60.93 121.076 Q59.1476 120.636 57.3884 120.636 Q52.7588 120.636 50.3051 123.761 Q47.8745 126.886 47.5273 133.205 Q48.893 131.191 50.9532 130.126 Q53.0134 129.038 55.4902 129.038 Q60.6985 129.038 63.7078 132.21 Q66.7402 135.358 66.7402 140.798 Q66.7402 146.122 63.592 149.339 Q60.4439 152.557 55.2124 152.557 Q49.2171 152.557 46.0458 147.974 Q42.8745 143.367 42.8745 134.64 Q42.8745 126.446 46.7634 121.585 Q50.6523 116.701 57.2032 116.701 Q58.9624 116.701 60.7448 117.048 Q62.5504 117.395 64.4948 118.089 Z" fill="#000000" fill-rule="nonzero" fill-opacity="1" /><path clip-path="url(#clip900)" d="M-61.4234 1000.84 Q-67.8846 1000.84 -71.5449 1003.51 Q-75.237 1006.15 -75.237 1010.8 Q-75.237 1015.45 -71.5449 1018.12 Q-67.8846 1020.76 -61.4234 1020.76 Q-54.9622 1020.76 -51.2701 1018.12 Q-47.6098 1015.45 -47.6098 1010.8 Q-47.6098 1006.15 -51.2701 1003.51 Q-54.9622 1000.84 -61.4234 1000.84 M-73.8684 1020.76 Q-77.0512 1018.92 -78.579 1016.12 Q-80.1386 1013.28 -80.1386 1009.37 Q-80.1386 1002.87 -74.9824 998.832 Q-69.8261 994.758 -61.4234 994.758 Q-53.0207 994.758 -47.8645 998.832 Q-42.7082 1002.87 -42.7082 1009.37 Q-42.7082 1013.28 -44.236 1016.12 Q-45.7956 1018.92 -48.9785 1020.76 L-43.6313 1020.76 L-43.6313 1026.65 L-93.1565 1026.65 L-93.1565 1020.76 L-73.8684 1020.76 Z" fill="#000000" fill-rule="nonzero" fill-opacity="1" /><path clip-path="url(#clip900)" d="M-57.6995 985.655 L-79.2792 985.655 L-79.2792 979.799 L-57.9223 979.799 Q-52.8615 979.799 -50.3153 977.825 Q-47.8008 975.852 -47.8008 971.905 Q-47.8008 967.163 -50.8245 964.426 Q-53.8482 961.656 -59.0681 961.656 L-79.2792 961.656 L-79.2792 955.8 L-43.6313 955.8 L-43.6313 961.656 L-49.1058 961.656 Q-45.8593 963.789 -44.2678 966.622 Q-42.7082 969.423 -42.7082 973.147 Q-42.7082 979.289 -46.5277 982.472 Q-50.3471 985.655 -57.6995 985.655 M-80.1386 970.919 L-80.1386 970.919 Z" fill="#000000" fill-rule="nonzero" fill-opacity="1" /><path clip-path="url(#clip900)" d="M-93.1565 943.737 L-93.1565 937.881 L-43.6313 937.881 L-43.6313 943.737 L-93.1565 943.737 Z" fill="#000000" fill-rule="nonzero" fill-opacity="1" /><path clip-path="url(#clip900)" d="M-93.1565 925.849 L-93.1565 919.961 L-63.906 919.961 L-79.2792 902.487 L-79.2792 895.007 L-62.6011 913.914 L-43.6313 894.212 L-43.6313 901.851 L-61.0415 919.961 L-43.6313 919.961 L-43.6313 925.849 L-93.1565 925.849 Z" fill="#000000" fill-rule="nonzero" fill-opacity="1" /><path clip-path="url(#clip900)" d="M-72.4361 839.403 Q-76.3828 837.207 -78.2607 834.151 Q-80.1386 831.096 -80.1386 826.958 Q-80.1386 821.388 -76.2237 818.364 Q-72.3406 815.341 -65.1473 815.341 L-43.6313 815.341 L-43.6313 821.229 L-64.9564 821.229 Q-70.0808 821.229 -72.5634 823.043 Q-75.046 824.857 -75.046 828.581 Q-75.046 833.133 -72.0223 835.775 Q-68.9986 838.416 -63.7787 838.416 L-43.6313 838.416 L-43.6313 844.305 L-64.9564 844.305 Q-70.1126 844.305 -72.5634 846.119 Q-75.046 847.933 -75.046 851.721 Q-75.046 856.209 -71.9905 858.85 Q-68.9668 861.492 -63.7787 861.492 L-43.6313 861.492 L-43.6313 867.38 L-79.2792 867.38 L-79.2792 861.492 L-73.7411 861.492 Q-77.0194 859.487 -78.579 856.686 Q-80.1386 853.885 -80.1386 850.034 Q-80.1386 846.151 -78.1652 843.445 Q-76.1919 840.708 -72.4361 839.403 Z" fill="#000000" fill-rule="nonzero" fill-opacity="1" /><path clip-path="url(#clip900)" d="M-75.1733 789.846 Q-75.1733 794.557 -71.4812 797.294 Q-67.8209 800.031 -61.4234 800.031 Q-55.0259 800.031 -51.3338 797.326 Q-47.6735 794.588 -47.6735 789.846 Q-47.6735 785.167 -51.3656 782.43 Q-55.0577 779.693 -61.4234 779.693 Q-67.7573 779.693 -71.4494 782.43 Q-75.1733 785.167 -75.1733 789.846 M-80.1386 789.846 Q-80.1386 782.207 -75.1733 777.847 Q-70.2081 773.486 -61.4234 773.486 Q-52.6706 773.486 -47.6735 777.847 Q-42.7082 782.207 -42.7082 789.846 Q-42.7082 797.517 -47.6735 801.877 Q-52.6706 806.206 -61.4234 806.206 Q-70.2081 806.206 -75.1733 801.877 Q-80.1386 797.517 -80.1386 789.846 Z" fill="#000000" fill-rule="nonzero" fill-opacity="1" /><path clip-path="url(#clip900)" d="M-73.8684 740.321 L-93.1565 740.321 L-93.1565 734.464 L-43.6313 734.464 L-43.6313 740.321 L-48.9785 740.321 Q-45.7956 742.167 -44.236 745 Q-42.7082 747.801 -42.7082 751.747 Q-42.7082 758.208 -47.8645 762.282 Q-53.0207 766.325 -61.4234 766.325 Q-69.8261 766.325 -74.9824 762.282 Q-80.1386 758.208 -80.1386 751.747 Q-80.1386 747.801 -78.579 745 Q-77.0512 742.167 -73.8684 740.321 M-61.4234 760.277 Q-54.9622 760.277 -51.2701 757.636 Q-47.6098 754.962 -47.6098 750.315 Q-47.6098 745.668 -51.2701 742.994 Q-54.9622 740.321 -61.4234 740.321 Q-67.8846 740.321 -71.5449 742.994 Q-75.237 745.668 -75.237 750.315 Q-75.237 754.962 -71.5449 757.636 Q-67.8846 760.277 -61.4234 760.277 Z" fill="#000000" fill-rule="nonzero" fill-opacity="1" /><path clip-path="url(#clip900)" d="M-57.6995 723.006 L-79.2792 723.006 L-79.2792 717.15 L-57.9223 717.15 Q-52.8615 717.15 -50.3153 715.176 Q-47.8008 713.203 -47.8008 709.256 Q-47.8008 704.514 -50.8245 701.776 Q-53.8482 699.007 -59.0681 699.007 L-79.2792 699.007 L-79.2792 693.151 L-43.6313 693.151 L-43.6313 699.007 L-49.1058 699.007 Q-45.8593 701.14 -44.2678 703.973 Q-42.7082 706.774 -42.7082 710.497 Q-42.7082 716.64 -46.5277 719.823 Q-50.3471 723.006 -57.6995 723.006 M-80.1386 708.269 L-80.1386 708.269 Z" fill="#000000" fill-rule="nonzero" fill-opacity="1" /><path clip-path="url(#clip900)" d="M-93.1565 681.088 L-93.1565 675.231 L-43.6313 675.231 L-43.6313 681.088 L-93.1565 681.088 Z" fill="#000000" fill-rule="nonzero" fill-opacity="1" /><path clip-path="url(#clip900)" d="M-57.6995 663.582 L-79.2792 663.582 L-79.2792 657.726 L-57.9223 657.726 Q-52.8615 657.726 -50.3153 655.752 Q-47.8008 653.779 -47.8008 649.832 Q-47.8008 645.09 -50.8245 642.353 Q-53.8482 639.584 -59.0681 639.584 L-79.2792 639.584 L-79.2792 633.727 L-43.6313 633.727 L-43.6313 639.584 L-49.1058 639.584 Q-45.8593 641.716 -44.2678 644.549 Q-42.7082 647.35 -42.7082 651.074 Q-42.7082 657.217 -46.5277 660.399 Q-50.3471 663.582 -57.6995 663.582 M-80.1386 648.846 L-80.1386 648.846 Z" fill="#000000" fill-rule="nonzero" fill-opacity="1" /><path clip-path="url(#clip900)" d="M-78.2289 598.938 L-72.6907 598.938 Q-73.9639 601.421 -74.6004 604.095 Q-75.237 606.768 -75.237 609.633 Q-75.237 613.993 -73.9002 616.19 Q-72.5634 618.354 -69.8898 618.354 Q-67.8528 618.354 -66.6751 616.794 Q-65.5293 615.235 -64.479 610.524 L-64.0334 608.519 Q-62.6966 602.28 -60.2458 599.671 Q-57.8268 597.029 -53.4663 597.029 Q-48.501 597.029 -45.6046 600.975 Q-42.7082 604.89 -42.7082 611.765 Q-42.7082 614.63 -43.2811 617.749 Q-43.8222 620.836 -44.9362 624.274 L-50.9837 624.274 Q-49.2967 621.027 -48.4374 617.876 Q-47.6098 614.725 -47.6098 611.638 Q-47.6098 607.5 -49.0103 605.272 Q-50.4426 603.044 -53.0207 603.044 Q-55.4078 603.044 -56.681 604.668 Q-57.9541 606.259 -59.1318 611.702 L-59.6092 613.739 Q-60.755 619.181 -63.1103 621.6 Q-65.4975 624.019 -69.6352 624.019 Q-74.6641 624.019 -77.4013 620.455 Q-80.1386 616.89 -80.1386 610.333 Q-80.1386 607.087 -79.6612 604.222 Q-79.1837 601.357 -78.2289 598.938 Z" fill="#000000" fill-rule="nonzero" fill-opacity="1" /><path clip-path="url(#clip900)" d="M1186.91 29.477 Q1186.91 33.289 1184.29 36.7321 Q1181.71 40.1342 1177.77 42.3067 Q1173.84 44.4381 1169.37 45.2579 Q1175.4 45.9547 1178.88 49.2339 Q1182.41 52.513 1182.41 57.1038 Q1182.41 60.178 1180.6 63.4162 Q1178.84 66.6133 1175.81 69.2366 Q1172.81 71.8599 1168.39 73.5405 Q1164 75.2211 1159.21 75.2211 L1129.24 75.2211 Q1128.3 75.2211 1127.93 75.1801 Q1127.56 75.1391 1127.28 74.9341 Q1126.99 74.7292 1126.99 74.2783 Q1126.99 73.4585 1127.28 73.0896 Q1127.6 72.7207 1127.97 72.6797 Q1128.34 72.6387 1129.24 72.6387 Q1131.29 72.6387 1132.52 72.5158 Q1133.75 72.3928 1134.53 72.2288 Q1135.35 72.0239 1135.76 71.45 Q1136.21 70.8762 1136.42 70.3843 Q1136.62 69.8515 1136.91 68.6628 L1148.14 23.5746 Q1148.47 22.2219 1148.47 22.017 Q1148.47 21.2382 1147.97 21.0332 Q1147.52 20.7873 1146.21 20.6643 L1143.01 20.5004 Q1142.03 20.5004 1141.62 20.4594 Q1141.25 20.4184 1140.97 20.2135 Q1140.68 20.0085 1140.68 19.5576 Q1140.68 18.4099 1141.17 18.164 Q1141.7 17.8771 1143.1 17.8771 L1171.3 17.8771 Q1178.55 17.8771 1182.73 21.2382 Q1186.91 24.5583 1186.91 29.477 M1179.29 29.1491 Q1179.29 27.5915 1178.88 26.1979 Q1178.47 24.8043 1177.49 23.4516 Q1176.54 22.099 1174.66 21.3202 Q1172.77 20.5004 1170.15 20.5004 L1159.29 20.5004 Q1156.62 20.5004 1155.97 20.9922 Q1155.35 21.4431 1154.78 23.6975 L1149.57 44.4791 L1161.83 44.4791 Q1165.56 44.4791 1168.84 43.1265 Q1172.16 41.7738 1174.41 39.6014 Q1176.67 37.388 1177.98 34.6417 Q1179.29 31.8954 1179.29 29.1491 M1174.58 56.161 Q1174.58 54.9314 1174.37 53.7427 Q1174.17 52.554 1173.51 51.1604 Q1172.86 49.7667 1171.83 48.742 Q1170.81 47.7173 1169 47.0204 Q1167.24 46.3236 1164.94 46.3236 L1149.08 46.3236 L1143.26 69.7695 Q1142.85 71.2861 1142.85 71.696 Q1142.85 72.1469 1143.06 72.3108 Q1143.3 72.4338 1143.96 72.5158 Q1144.7 72.6387 1145.8 72.6387 L1157.2 72.6387 Q1160.8 72.6387 1164.08 71.2451 Q1167.36 69.8105 1169.62 67.5151 Q1171.91 65.2197 1173.22 62.2275 Q1174.58 59.2352 1174.58 56.161 Z" fill="#000000" fill-rule="nonzero" fill-opacity="1" /><path clip-path="url(#clip900)" d="M1199.48 54.2346 Q1199.48 40.0523 1204.77 28.6163 Q1207.02 23.8205 1210.18 19.8036 Q1213.34 15.7866 1215.43 14.0241 Q1217.52 12.2615 1218.09 12.2615 Q1218.91 12.2615 1218.95 13.0813 Q1218.95 13.4912 1217.85 14.5159 Q1204.32 28.2883 1204.36 54.2346 Q1204.36 80.2627 1217.52 93.5023 Q1218.95 94.9369 1218.95 95.3878 Q1218.95 96.2076 1218.09 96.2076 Q1217.52 96.2076 1215.51 94.527 Q1213.5 92.8465 1210.39 88.9935 Q1207.27 85.1405 1205.02 80.4267 Q1199.48 68.9907 1199.48 54.2346 Z" fill="#000000" fill-rule="nonzero" fill-opacity="1" /><path clip-path="url(#clip900)" d="M1288.2 18.9018 Q1288.12 20.4184 1287.09 20.5004 Q1285.54 20.5824 1284.59 20.7873 Q1283.65 20.9513 1282.17 21.5661 Q1280.7 22.1809 1279.26 23.6566 Q1277.83 25.1322 1276.35 27.4686 L1246.14 75.549 Q1245.61 76.4507 1245.16 76.7377 Q1244.75 77.0656 1243.81 77.0656 Q1242.95 77.0656 1242.62 76.6967 Q1242.29 76.3688 1242.13 75.1391 L1235.49 23.3286 Q1235.36 22.3859 1235.24 21.976 Q1235.12 21.5661 1234.63 21.1562 Q1234.18 20.7463 1233.19 20.6233 Q1232.21 20.5004 1230.45 20.5004 Q1229.63 20.5004 1229.26 20.4594 Q1228.93 20.4184 1228.64 20.2135 Q1228.36 19.9675 1228.36 19.4756 Q1228.36 18.7378 1228.64 18.3689 Q1228.97 17.959 1229.22 17.9181 Q1229.5 17.8771 1229.95 17.8771 Q1230.65 17.8771 1232.17 17.959 Q1233.68 18.041 1234.46 18.041 Q1235.2 18.041 1236.76 18.082 Q1238.32 18.123 1239.09 18.123 Q1240.82 18.123 1244.3 18 Q1247.83 17.8771 1249.51 17.8771 Q1250.65 17.8771 1250.65 18.8198 Q1250.65 19.9675 1250.16 20.2544 Q1249.67 20.5004 1248.56 20.5004 Q1245.78 20.5004 1244.26 21.1972 Q1242.78 21.894 1242.78 23.0007 L1248.48 67.4331 L1274.26 26.4438 Q1275.53 24.5173 1275.53 23.2467 Q1275.53 20.7873 1271.64 20.5004 Q1270.33 20.5004 1270.33 19.4756 Q1270.33 18.7378 1270.66 18.3689 Q1270.98 17.959 1271.23 17.9181 Q1271.52 17.8771 1271.93 17.8771 Q1273.28 17.8771 1276.03 18 Q1278.81 18.123 1280.21 18.123 Q1281.35 18.123 1283.69 18 Q1286.03 17.8771 1287.09 17.8771 Q1288.2 17.8771 1288.2 18.9018 Z" fill="#000000" fill-rule="nonzero" fill-opacity="1" /><path clip-path="url(#clip900)" d="M1296.27 95.3878 Q1296.27 94.9779 1297.34 93.9532 Q1310.87 80.1808 1310.87 54.2346 Q1310.87 28.2064 1297.87 15.0488 Q1296.27 13.5322 1296.27 13.0813 Q1296.27 12.2615 1297.09 12.2615 Q1297.67 12.2615 1299.68 13.9421 Q1301.73 15.6227 1304.8 19.4756 Q1307.92 23.3286 1310.21 28.0424 Q1315.74 39.4784 1315.74 54.2346 Q1315.74 68.4168 1310.46 79.8529 Q1308.2 84.6486 1305.05 88.6655 Q1301.89 92.6825 1299.8 94.445 Q1297.71 96.2076 1297.09 96.2076 Q1296.27 96.2076 1296.27 95.3878 Z" fill="#000000" fill-rule="nonzero" fill-opacity="1" /><polyline clip-path="url(#clip902)" style="stroke:#009af9; stroke-linecap:round; stroke-linejoin:round; stroke-width:4; stroke-opacity:1; fill:none" points="171.653,157.669 206.943,204.741 242.234,248.382 277.524,288.897 312.814,326.558 348.105,361.613 383.395,394.279 418.686,424.757 453.976,453.223 489.266,479.841 524.557,504.756 559.847,528.101 595.137,549.996 630.428,570.55 665.718,589.864 701.009,608.027 736.299,625.124 771.589,641.23 806.88,656.415 842.17,670.742 877.461,684.271 912.751,697.054 948.041,709.142 983.332,720.581 1018.62,731.412 1053.91,741.674 1089.2,751.403 1124.49,760.633 1159.78,769.395 1195.07,777.717 1230.36,785.625 1265.65,793.144 1300.95,800.298 1336.24,807.107 1371.53,813.592 1406.82,819.77 1442.11,825.66 1477.4,831.276 1512.69,836.636 1547.98,841.751 1583.27,846.636 1618.56,851.303 1653.85,855.764 1689.14,860.029 1724.43,864.108 1759.72,868.012 1795.01,871.748 1830.3,875.326 1865.59,878.754 1900.88,882.038 1936.17,885.186 1971.46,888.205 2006.75,891.101 2042.04,893.879 2077.33,896.546 2112.62,899.107 2147.91,901.565 2183.21,903.927 2218.5,906.197 2253.79,908.379 2289.08,910.476 "/>
<polyline clip-path="url(#clip902)" style="stroke:#e26f46; stroke-linecap:round; stroke-linejoin:round; stroke-width:4; stroke-opacity:1; fill:none" points="171.653,157.669 206.943,204.741 242.234,248.382 277.524,288.897 312.814,326.558 348.105,361.613 383.395,394.279 418.686,424.757 453.976,453.223 489.266,479.841 524.557,504.756 559.847,528.101 595.137,549.996 630.428,570.55 665.718,589.864 701.009,608.027 736.299,625.124 771.589,641.23 806.88,656.415 842.17,670.742 877.461,684.271 912.751,697.054 948.041,709.142 983.332,720.581 1018.62,731.412 1053.91,741.674 1089.2,751.403 1124.49,760.633 1159.78,769.395 1195.07,777.717 1230.36,785.625 1265.65,793.144 1300.95,800.298 1336.24,807.107 1371.53,813.592 1406.82,819.77 1442.11,825.66 1477.4,831.276 1512.69,836.636 1547.98,841.751 1583.27,846.636 1618.56,851.303 1653.85,855.764 1689.14,860.029 1724.43,864.108 1759.72,868.012 1795.01,871.748 1830.3,875.326 1865.59,878.754 1900.88,882.038 1936.17,885.186 1971.46,888.205 2006.75,891.101 2042.04,893.879 2077.33,896.546 2112.62,899.107 2147.91,901.565 2183.21,903.927 2218.5,906.197 2253.79,908.379 2289.08,910.476 "/>
<polyline clip-path="url(#clip902)" style="stroke:#3da44d; stroke-linecap:round; stroke-linejoin:round; stroke-width:4; stroke-opacity:1; fill:none" points="166.42,1466.01 201.606,1435.13 236.791,1405.97 271.977,1378.41 307.163,1352.34 342.349,1327.66 377.534,1304.27 412.72,1282.11 447.906,1261.07 483.091,1241.1 518.277,1222.13 553.463,1204.09 588.649,1186.93 623.834,1170.6 659.02,1155.05 694.206,1140.23 729.392,1126.1 764.577,1112.63 799.763,1099.77 834.949,1087.49 870.134,1075.76 905.32,1064.55 940.506,1053.84 975.692,1043.59 1010.88,1033.78 1046.06,1024.4 1081.25,1015.41 1116.43,1006.81 1151.62,998.558 1186.81,990.653 1221.99,983.074 1257.18,975.805 1292.36,968.831 1327.55,962.139 1362.73,955.714 1397.92,949.546 1433.11,943.622 1468.29,937.932 1503.48,932.464 1538.66,927.209 1573.85,922.157 1609.03,917.3 1644.22,912.629 1679.41,908.136 1714.59,903.814 1749.78,899.655 1784.96,895.653 1820.15,891.801 1855.33,888.093 1890.52,884.523 1925.71,881.086 1960.89,877.775 1996.08,874.587 2031.26,871.516 2066.45,868.558 2101.64,865.707 2136.82,862.961 2172.01,860.316 2207.19,857.766 2242.38,855.309 2277.56,852.941 "/>
<polyline clip-path="url(#clip902)" style="stroke:#c271d2; stroke-linecap:round; stroke-linejoin:round; stroke-width:4; stroke-opacity:1; fill:none" points="168.537,286.513 203.765,319.036 238.993,349.688 274.221,378.602 309.449,405.898 344.677,431.686 379.905,456.068 415.133,479.137 450.361,500.979 485.589,521.672 520.817,541.29 556.045,559.9 591.273,577.565 626.501,594.343 661.729,610.286 696.957,625.445 732.186,639.866 767.414,653.592 802.642,666.663 837.87,679.116 873.098,690.986 908.326,702.305 943.554,713.104 978.782,723.41 1014.01,733.251 1049.24,742.652 1084.47,751.634 1119.69,760.221 1154.92,768.433 1190.15,776.289 1225.38,783.807 1260.61,791.004 1295.83,797.895 1331.06,804.497 1366.29,810.823 1401.52,816.887 1436.75,822.7 1471.97,828.276 1507.2,833.625 1542.43,838.758 1577.66,843.684 1612.89,848.414 1648.12,852.957 1683.34,857.32 1718.57,861.512 1753.8,865.541 1789.03,869.414 1824.26,873.137 1859.48,876.718 1894.71,880.162 1929.94,883.475 1965.17,886.663 2000.4,889.731 2035.62,892.684 2070.85,895.527 2106.08,898.265 2141.31,900.901 2176.54,903.441 2211.76,905.888 2246.99,908.245 2282.22,910.517 "/>
<path clip-path="url(#clip900)" d="M1649.54 423.847 L2277.76 423.847 L2277.76 164.647 L1649.54 164.647  Z" fill="#ffffff" fill-rule="evenodd" fill-opacity="1"/>
<polyline clip-path="url(#clip900)" style="stroke:#000000; stroke-linecap:round; stroke-linejoin:round; stroke-width:4; stroke-opacity:1; fill:none" points="1649.54,423.847 2277.76,423.847 2277.76,164.647 1649.54,164.647 1649.54,423.847 "/>
<polyline clip-path="url(#clip900)" style="stroke:#009af9; stroke-linecap:round; stroke-linejoin:round; stroke-width:4; stroke-opacity:1; fill:none" points="1674.54,216.487 1824.54,216.487 "/>
<path clip-path="url(#clip900)" d="M1854.22 217.263 L1854.22 229.925 L1861.72 229.925 Q1865.49 229.925 1867.29 228.374 Q1869.12 226.8 1869.12 223.582 Q1869.12 220.341 1867.29 218.814 Q1865.49 217.263 1861.72 217.263 L1854.22 217.263 M1854.22 203.05 L1854.22 213.466 L1861.14 213.466 Q1864.56 213.466 1866.23 212.193 Q1867.92 210.897 1867.92 208.258 Q1867.92 205.642 1866.23 204.346 Q1864.56 203.05 1861.14 203.05 L1854.22 203.05 M1849.54 199.207 L1861.48 199.207 Q1866.83 199.207 1869.72 201.429 Q1872.62 203.652 1872.62 207.749 Q1872.62 210.92 1871.14 212.795 Q1869.66 214.67 1866.79 215.133 Q1870.23 215.874 1872.13 218.235 Q1874.05 220.573 1874.05 224.091 Q1874.05 228.721 1870.91 231.244 Q1867.76 233.767 1861.95 233.767 L1849.54 233.767 L1849.54 199.207 Z" fill="#000000" fill-rule="nonzero" fill-opacity="1" /><path clip-path="url(#clip900)" d="M1881.88 207.841 L1886.14 207.841 L1886.14 233.767 L1881.88 233.767 L1881.88 207.841 M1881.88 197.749 L1886.14 197.749 L1886.14 203.142 L1881.88 203.142 L1881.88 197.749 Z" fill="#000000" fill-rule="nonzero" fill-opacity="1" /><path clip-path="url(#clip900)" d="M1910.07 211.823 Q1909.35 211.406 1908.5 211.221 Q1907.66 211.013 1906.65 211.013 Q1903.03 211.013 1901.09 213.374 Q1899.17 215.712 1899.17 220.11 L1899.17 233.767 L1894.89 233.767 L1894.89 207.841 L1899.17 207.841 L1899.17 211.869 Q1900.51 209.508 1902.66 208.374 Q1904.82 207.216 1907.9 207.216 Q1908.34 207.216 1908.87 207.286 Q1909.4 207.332 1910.05 207.448 L1910.07 211.823 Z" fill="#000000" fill-rule="nonzero" fill-opacity="1" /><path clip-path="url(#clip900)" d="M1932.16 208.837 L1932.16 212.818 Q1930.35 211.823 1928.52 211.337 Q1926.72 210.828 1924.86 210.828 Q1920.72 210.828 1918.43 213.466 Q1916.14 216.082 1916.14 220.827 Q1916.14 225.573 1918.43 228.212 Q1920.72 230.827 1924.86 230.827 Q1926.72 230.827 1928.52 230.341 Q1930.35 229.832 1932.16 228.837 L1932.16 232.772 Q1930.37 233.605 1928.45 234.022 Q1926.55 234.439 1924.4 234.439 Q1918.54 234.439 1915.09 230.758 Q1911.65 227.077 1911.65 220.827 Q1911.65 214.485 1915.12 210.851 Q1918.61 207.216 1924.68 207.216 Q1926.65 207.216 1928.52 207.633 Q1930.4 208.027 1932.16 208.837 Z" fill="#000000" fill-rule="nonzero" fill-opacity="1" /><path clip-path="url(#clip900)" d="M1961.11 218.119 L1961.11 233.767 L1956.85 233.767 L1956.85 218.258 Q1956.85 214.578 1955.42 212.749 Q1953.98 210.92 1951.11 210.92 Q1947.66 210.92 1945.67 213.119 Q1943.68 215.318 1943.68 219.115 L1943.68 233.767 L1939.4 233.767 L1939.4 197.749 L1943.68 197.749 L1943.68 211.869 Q1945.21 209.531 1947.27 208.374 Q1949.35 207.216 1952.06 207.216 Q1956.53 207.216 1958.82 209.994 Q1961.11 212.749 1961.11 218.119 Z" fill="#000000" fill-rule="nonzero" fill-opacity="1" /><path clip-path="url(#clip900)" d="M1967.46 219.115 L1986.53 219.115 L1986.53 222.448 L1967.46 222.448 L1967.46 219.115 Z" fill="#000000" fill-rule="nonzero" fill-opacity="1" /><path clip-path="url(#clip900)" d="M1993.5 199.207 L2000.46 199.207 L2009.28 222.726 L2018.15 199.207 L2025.12 199.207 L2025.12 233.767 L2020.56 233.767 L2020.56 203.42 L2011.65 227.124 L2006.95 227.124 L1998.03 203.42 L1998.03 233.767 L1993.5 233.767 L1993.5 199.207 Z" fill="#000000" fill-rule="nonzero" fill-opacity="1" /><path clip-path="url(#clip900)" d="M2033.77 223.536 L2033.77 207.841 L2038.03 207.841 L2038.03 223.374 Q2038.03 227.054 2039.47 228.906 Q2040.9 230.735 2043.77 230.735 Q2047.22 230.735 2049.21 228.536 Q2051.23 226.337 2051.23 222.54 L2051.23 207.841 L2055.49 207.841 L2055.49 233.767 L2051.23 233.767 L2051.23 229.786 Q2049.68 232.147 2047.62 233.304 Q2045.58 234.439 2042.87 234.439 Q2038.4 234.439 2036.09 231.661 Q2033.77 228.883 2033.77 223.536 M2044.49 207.216 L2044.49 207.216 Z" fill="#000000" fill-rule="nonzero" fill-opacity="1" /><path clip-path="url(#clip900)" d="M2079.28 211.823 Q2078.57 211.406 2077.71 211.221 Q2076.88 211.013 2075.86 211.013 Q2072.25 211.013 2070.3 213.374 Q2068.38 215.712 2068.38 220.11 L2068.38 233.767 L2064.1 233.767 L2064.1 207.841 L2068.38 207.841 L2068.38 211.869 Q2069.72 209.508 2071.88 208.374 Q2074.03 207.216 2077.11 207.216 Q2077.55 207.216 2078.08 207.286 Q2078.61 207.332 2079.26 207.448 L2079.28 211.823 Z" fill="#000000" fill-rule="nonzero" fill-opacity="1" /><path clip-path="url(#clip900)" d="M2104.47 218.119 L2104.47 233.767 L2100.21 233.767 L2100.21 218.258 Q2100.21 214.578 2098.77 212.749 Q2097.34 210.92 2094.47 210.92 Q2091.02 210.92 2089.03 213.119 Q2087.04 215.318 2087.04 219.115 L2087.04 233.767 L2082.76 233.767 L2082.76 207.841 L2087.04 207.841 L2087.04 211.869 Q2088.57 209.531 2090.63 208.374 Q2092.71 207.216 2095.42 207.216 Q2099.89 207.216 2102.18 209.994 Q2104.47 212.749 2104.47 218.119 Z" fill="#000000" fill-rule="nonzero" fill-opacity="1" /><path clip-path="url(#clip900)" d="M2124.75 220.735 Q2119.58 220.735 2117.59 221.915 Q2115.6 223.096 2115.6 225.943 Q2115.6 228.212 2117.08 229.554 Q2118.59 230.874 2121.16 230.874 Q2124.7 230.874 2126.83 228.374 Q2128.98 225.851 2128.98 221.684 L2128.98 220.735 L2124.75 220.735 M2133.24 218.976 L2133.24 233.767 L2128.98 233.767 L2128.98 229.832 Q2127.52 232.193 2125.35 233.327 Q2123.17 234.439 2120.02 234.439 Q2116.04 234.439 2113.68 232.216 Q2111.34 229.971 2111.34 226.221 Q2111.34 221.846 2114.26 219.624 Q2117.2 217.402 2123.01 217.402 L2128.98 217.402 L2128.98 216.985 Q2128.98 214.045 2127.04 212.448 Q2125.12 210.828 2121.62 210.828 Q2119.4 210.828 2117.29 211.36 Q2115.19 211.892 2113.24 212.957 L2113.24 209.022 Q2115.58 208.119 2117.78 207.679 Q2119.98 207.216 2122.06 207.216 Q2127.69 207.216 2130.46 210.133 Q2133.24 213.05 2133.24 218.976 Z" fill="#000000" fill-rule="nonzero" fill-opacity="1" /><path clip-path="url(#clip900)" d="M2159.08 220.503 Q2159.08 215.874 2157.15 213.328 Q2155.26 210.781 2151.81 210.781 Q2148.38 210.781 2146.46 213.328 Q2144.56 215.874 2144.56 220.503 Q2144.56 225.11 2146.46 227.656 Q2148.38 230.202 2151.81 230.202 Q2155.26 230.202 2157.15 227.656 Q2159.08 225.11 2159.08 220.503 M2163.33 230.55 Q2163.33 237.17 2160.39 240.388 Q2157.45 243.628 2151.39 243.628 Q2149.14 243.628 2147.15 243.281 Q2145.16 242.957 2143.29 242.263 L2143.29 238.119 Q2145.16 239.138 2146.99 239.624 Q2148.82 240.11 2150.72 240.11 Q2154.91 240.11 2156.99 237.911 Q2159.08 235.735 2159.08 231.314 L2159.08 229.207 Q2157.76 231.499 2155.7 232.633 Q2153.64 233.767 2150.77 233.767 Q2146 233.767 2143.08 230.133 Q2140.16 226.499 2140.16 220.503 Q2140.16 214.485 2143.08 210.851 Q2146 207.216 2150.77 207.216 Q2153.64 207.216 2155.7 208.351 Q2157.76 209.485 2159.08 211.777 L2159.08 207.841 L2163.33 207.841 L2163.33 230.55 Z" fill="#000000" fill-rule="nonzero" fill-opacity="1" /><path clip-path="url(#clip900)" d="M2193.66 218.119 L2193.66 233.767 L2189.4 233.767 L2189.4 218.258 Q2189.4 214.578 2187.96 212.749 Q2186.53 210.92 2183.66 210.92 Q2180.21 210.92 2178.22 213.119 Q2176.23 215.318 2176.23 219.115 L2176.23 233.767 L2171.95 233.767 L2171.95 197.749 L2176.23 197.749 L2176.23 211.869 Q2177.76 209.531 2179.82 208.374 Q2181.9 207.216 2184.61 207.216 Q2189.07 207.216 2191.37 209.994 Q2193.66 212.749 2193.66 218.119 Z" fill="#000000" fill-rule="nonzero" fill-opacity="1" /><path clip-path="url(#clip900)" d="M2213.94 220.735 Q2208.77 220.735 2206.78 221.915 Q2204.79 223.096 2204.79 225.943 Q2204.79 228.212 2206.27 229.554 Q2207.78 230.874 2210.35 230.874 Q2213.89 230.874 2216.02 228.374 Q2218.17 225.851 2218.17 221.684 L2218.17 220.735 L2213.94 220.735 M2222.43 218.976 L2222.43 233.767 L2218.17 233.767 L2218.17 229.832 Q2216.71 232.193 2214.54 233.327 Q2212.36 234.439 2209.21 234.439 Q2205.23 234.439 2202.87 232.216 Q2200.53 229.971 2200.53 226.221 Q2200.53 221.846 2203.45 219.624 Q2206.39 217.402 2212.2 217.402 L2218.17 217.402 L2218.17 216.985 Q2218.17 214.045 2216.23 212.448 Q2214.31 210.828 2210.81 210.828 Q2208.59 210.828 2206.48 211.36 Q2204.38 211.892 2202.43 212.957 L2202.43 209.022 Q2204.77 208.119 2206.97 207.679 Q2209.17 207.216 2211.25 207.216 Q2216.88 207.216 2219.65 210.133 Q2222.43 213.05 2222.43 218.976 Z" fill="#000000" fill-rule="nonzero" fill-opacity="1" /><path clip-path="url(#clip900)" d="M2252.76 218.119 L2252.76 233.767 L2248.5 233.767 L2248.5 218.258 Q2248.5 214.578 2247.06 212.749 Q2245.63 210.92 2242.76 210.92 Q2239.31 210.92 2237.32 213.119 Q2235.32 215.318 2235.32 219.115 L2235.32 233.767 L2231.04 233.767 L2231.04 207.841 L2235.32 207.841 L2235.32 211.869 Q2236.85 209.531 2238.91 208.374 Q2241 207.216 2243.7 207.216 Q2248.17 207.216 2250.46 209.994 Q2252.76 212.749 2252.76 218.119 Z" fill="#000000" fill-rule="nonzero" fill-opacity="1" /><polyline clip-path="url(#clip900)" style="stroke:#e26f46; stroke-linecap:round; stroke-linejoin:round; stroke-width:4; stroke-opacity:1; fill:none" points="1674.54,268.327 1824.54,268.327 "/>
<path clip-path="url(#clip900)" d="M1849.54 251.047 L1856.51 251.047 L1865.33 274.566 L1874.19 251.047 L1881.16 251.047 L1881.16 285.607 L1876.6 285.607 L1876.6 255.26 L1867.69 278.964 L1862.99 278.964 L1854.08 255.26 L1854.08 285.607 L1849.54 285.607 L1849.54 251.047 Z" fill="#000000" fill-rule="nonzero" fill-opacity="1" /><path clip-path="url(#clip900)" d="M1889.82 275.376 L1889.82 259.681 L1894.08 259.681 L1894.08 275.214 Q1894.08 278.894 1895.51 280.746 Q1896.95 282.575 1899.82 282.575 Q1903.27 282.575 1905.26 280.376 Q1907.27 278.177 1907.27 274.38 L1907.27 259.681 L1911.53 259.681 L1911.53 285.607 L1907.27 285.607 L1907.27 281.626 Q1905.72 283.987 1903.66 285.144 Q1901.62 286.279 1898.91 286.279 Q1894.45 286.279 1892.13 283.501 Q1889.82 280.723 1889.82 275.376 M1900.53 259.056 L1900.53 259.056 Z" fill="#000000" fill-rule="nonzero" fill-opacity="1" /><path clip-path="url(#clip900)" d="M1935.33 263.663 Q1934.61 263.246 1933.75 263.061 Q1932.92 262.853 1931.9 262.853 Q1928.29 262.853 1926.34 265.214 Q1924.42 267.552 1924.42 271.95 L1924.42 285.607 L1920.14 285.607 L1920.14 259.681 L1924.42 259.681 L1924.42 263.709 Q1925.77 261.348 1927.92 260.214 Q1930.07 259.056 1933.15 259.056 Q1933.59 259.056 1934.12 259.126 Q1934.66 259.172 1935.3 259.288 L1935.33 263.663 Z" fill="#000000" fill-rule="nonzero" fill-opacity="1" /><path clip-path="url(#clip900)" d="M1960.51 269.959 L1960.51 285.607 L1956.25 285.607 L1956.25 270.098 Q1956.25 266.418 1954.82 264.589 Q1953.38 262.76 1950.51 262.76 Q1947.06 262.76 1945.07 264.959 Q1943.08 267.158 1943.08 270.955 L1943.08 285.607 L1938.8 285.607 L1938.8 259.681 L1943.08 259.681 L1943.08 263.709 Q1944.61 261.371 1946.67 260.214 Q1948.75 259.056 1951.46 259.056 Q1955.93 259.056 1958.22 261.834 Q1960.51 264.589 1960.51 269.959 Z" fill="#000000" fill-rule="nonzero" fill-opacity="1" /><path clip-path="url(#clip900)" d="M1980.79 272.575 Q1975.63 272.575 1973.64 273.755 Q1971.65 274.936 1971.65 277.783 Q1971.65 280.052 1973.13 281.394 Q1974.63 282.714 1977.2 282.714 Q1980.74 282.714 1982.87 280.214 Q1985.03 277.691 1985.03 273.524 L1985.03 272.575 L1980.79 272.575 M1989.28 270.816 L1989.28 285.607 L1985.03 285.607 L1985.03 281.672 Q1983.57 284.033 1981.39 285.167 Q1979.22 286.279 1976.07 286.279 Q1972.09 286.279 1969.72 284.056 Q1967.39 281.811 1967.39 278.061 Q1967.39 273.686 1970.3 271.464 Q1973.24 269.242 1979.05 269.242 L1985.03 269.242 L1985.03 268.825 Q1985.03 265.885 1983.08 264.288 Q1981.16 262.668 1977.66 262.668 Q1975.44 262.668 1973.34 263.2 Q1971.23 263.732 1969.28 264.797 L1969.28 260.862 Q1971.62 259.959 1973.82 259.519 Q1976.02 259.056 1978.1 259.056 Q1983.73 259.056 1986.51 261.973 Q1989.28 264.89 1989.28 270.816 Z" fill="#000000" fill-rule="nonzero" fill-opacity="1" /><path clip-path="url(#clip900)" d="M2015.12 272.343 Q2015.12 267.714 2013.2 265.168 Q2011.3 262.621 2007.85 262.621 Q2004.42 262.621 2002.5 265.168 Q2000.6 267.714 2000.6 272.343 Q2000.6 276.95 2002.5 279.496 Q2004.42 282.042 2007.85 282.042 Q2011.3 282.042 2013.2 279.496 Q2015.12 276.95 2015.12 272.343 M2019.38 282.39 Q2019.38 289.01 2016.44 292.228 Q2013.5 295.468 2007.43 295.468 Q2005.19 295.468 2003.2 295.121 Q2001.21 294.797 1999.33 294.103 L1999.33 289.959 Q2001.21 290.978 2003.03 291.464 Q2004.86 291.95 2006.76 291.95 Q2010.95 291.95 2013.03 289.751 Q2015.12 287.575 2015.12 283.154 L2015.12 281.047 Q2013.8 283.339 2011.74 284.473 Q2009.68 285.607 2006.81 285.607 Q2002.04 285.607 1999.12 281.973 Q1996.21 278.339 1996.21 272.343 Q1996.21 266.325 1999.12 262.691 Q2002.04 259.056 2006.81 259.056 Q2009.68 259.056 2011.74 260.191 Q2013.8 261.325 2015.12 263.617 L2015.12 259.681 L2019.38 259.681 L2019.38 282.39 Z" fill="#000000" fill-rule="nonzero" fill-opacity="1" /><path clip-path="url(#clip900)" d="M2049.7 269.959 L2049.7 285.607 L2045.44 285.607 L2045.44 270.098 Q2045.44 266.418 2044.01 264.589 Q2042.57 262.76 2039.7 262.76 Q2036.25 262.76 2034.26 264.959 Q2032.27 267.158 2032.27 270.955 L2032.27 285.607 L2027.99 285.607 L2027.99 249.589 L2032.27 249.589 L2032.27 263.709 Q2033.8 261.371 2035.86 260.214 Q2037.94 259.056 2040.65 259.056 Q2045.12 259.056 2047.41 261.834 Q2049.7 264.589 2049.7 269.959 Z" fill="#000000" fill-rule="nonzero" fill-opacity="1" /><path clip-path="url(#clip900)" d="M2069.98 272.575 Q2064.82 272.575 2062.83 273.755 Q2060.83 274.936 2060.83 277.783 Q2060.83 280.052 2062.32 281.394 Q2063.82 282.714 2066.39 282.714 Q2069.93 282.714 2072.06 280.214 Q2074.21 277.691 2074.21 273.524 L2074.21 272.575 L2069.98 272.575 M2078.47 270.816 L2078.47 285.607 L2074.21 285.607 L2074.21 281.672 Q2072.76 284.033 2070.58 285.167 Q2068.4 286.279 2065.26 286.279 Q2061.27 286.279 2058.91 284.056 Q2056.58 281.811 2056.58 278.061 Q2056.58 273.686 2059.49 271.464 Q2062.43 269.242 2068.24 269.242 L2074.21 269.242 L2074.21 268.825 Q2074.21 265.885 2072.27 264.288 Q2070.35 262.668 2066.85 262.668 Q2064.63 262.668 2062.52 263.2 Q2060.42 263.732 2058.47 264.797 L2058.47 260.862 Q2060.81 259.959 2063.01 259.519 Q2065.21 259.056 2067.29 259.056 Q2072.92 259.056 2075.7 261.973 Q2078.47 264.89 2078.47 270.816 Z" fill="#000000" fill-rule="nonzero" fill-opacity="1" /><path clip-path="url(#clip900)" d="M2108.8 269.959 L2108.8 285.607 L2104.54 285.607 L2104.54 270.098 Q2104.54 266.418 2103.1 264.589 Q2101.67 262.76 2098.8 262.76 Q2095.35 262.76 2093.36 264.959 Q2091.37 267.158 2091.37 270.955 L2091.37 285.607 L2087.08 285.607 L2087.08 259.681 L2091.37 259.681 L2091.37 263.709 Q2092.89 261.371 2094.96 260.214 Q2097.04 259.056 2099.75 259.056 Q2104.21 259.056 2106.51 261.834 Q2108.8 264.589 2108.8 269.959 Z" fill="#000000" fill-rule="nonzero" fill-opacity="1" /><polyline clip-path="url(#clip900)" style="stroke:#3da44d; stroke-linecap:round; stroke-linejoin:round; stroke-width:4; stroke-opacity:1; fill:none" points="1674.54,320.167 1824.54,320.167 "/>
<path clip-path="url(#clip900)" d="M1854.22 306.73 L1854.22 319.716 L1860.1 319.716 Q1863.36 319.716 1865.14 318.026 Q1866.92 316.336 1866.92 313.211 Q1866.92 310.109 1865.14 308.42 Q1863.36 306.73 1860.1 306.73 L1854.22 306.73 M1849.54 302.887 L1860.1 302.887 Q1865.91 302.887 1868.87 305.526 Q1871.85 308.142 1871.85 313.211 Q1871.85 318.327 1868.87 320.943 Q1865.91 323.558 1860.1 323.558 L1854.22 323.558 L1854.22 337.447 L1849.54 337.447 L1849.54 302.887 Z" fill="#000000" fill-rule="nonzero" fill-opacity="1" /><path clip-path="url(#clip900)" d="M1886.3 314.508 Q1882.87 314.508 1880.88 317.193 Q1878.89 319.855 1878.89 324.507 Q1878.89 329.16 1880.86 331.845 Q1882.85 334.507 1886.3 334.507 Q1889.7 334.507 1891.69 331.822 Q1893.68 329.137 1893.68 324.507 Q1893.68 319.901 1891.69 317.216 Q1889.7 314.508 1886.3 314.508 M1886.3 310.896 Q1891.85 310.896 1895.03 314.508 Q1898.2 318.119 1898.2 324.507 Q1898.2 330.873 1895.03 334.507 Q1891.85 338.119 1886.3 338.119 Q1880.72 338.119 1877.55 334.507 Q1874.4 330.873 1874.4 324.507 Q1874.4 318.119 1877.55 314.508 Q1880.72 310.896 1886.3 310.896 Z" fill="#000000" fill-rule="nonzero" fill-opacity="1" /><path clip-path="url(#clip900)" d="M1905.26 311.521 L1909.52 311.521 L1909.52 337.447 L1905.26 337.447 L1905.26 311.521 M1905.26 301.429 L1909.52 301.429 L1909.52 306.822 L1905.26 306.822 L1905.26 301.429 Z" fill="#000000" fill-rule="nonzero" fill-opacity="1" /><path clip-path="url(#clip900)" d="M1933.45 315.503 Q1932.73 315.086 1931.88 314.901 Q1931.04 314.693 1930.03 314.693 Q1926.41 314.693 1924.47 317.054 Q1922.55 319.392 1922.55 323.79 L1922.55 337.447 L1918.27 337.447 L1918.27 311.521 L1922.55 311.521 L1922.55 315.549 Q1923.89 313.188 1926.04 312.054 Q1928.2 310.896 1931.28 310.896 Q1931.72 310.896 1932.25 310.966 Q1932.78 311.012 1933.43 311.128 L1933.45 315.503 Z" fill="#000000" fill-rule="nonzero" fill-opacity="1" /><path clip-path="url(#clip900)" d="M1937.92 311.521 L1942.18 311.521 L1942.18 337.447 L1937.92 337.447 L1937.92 311.521 M1937.92 301.429 L1942.18 301.429 L1942.18 306.822 L1937.92 306.822 L1937.92 301.429 Z" fill="#000000" fill-rule="nonzero" fill-opacity="1" /><path clip-path="url(#clip900)" d="M1973.27 323.42 L1973.27 325.503 L1953.68 325.503 Q1953.96 329.901 1956.32 332.216 Q1958.71 334.507 1962.94 334.507 Q1965.4 334.507 1967.69 333.906 Q1970 333.304 1972.27 332.1 L1972.27 336.128 Q1969.98 337.1 1967.57 337.609 Q1965.16 338.119 1962.69 338.119 Q1956.48 338.119 1952.85 334.507 Q1949.24 330.896 1949.24 324.739 Q1949.24 318.373 1952.66 314.646 Q1956.11 310.896 1961.95 310.896 Q1967.18 310.896 1970.21 314.276 Q1973.27 317.633 1973.27 323.42 M1969.01 322.17 Q1968.96 318.674 1967.04 316.591 Q1965.14 314.508 1961.99 314.508 Q1958.43 314.508 1956.28 316.521 Q1954.15 318.535 1953.82 322.193 L1969.01 322.17 Z" fill="#000000" fill-rule="nonzero" fill-opacity="1" /><path clip-path="url(#clip900)" d="M1995.28 315.503 Q1994.56 315.086 1993.71 314.901 Q1992.87 314.693 1991.85 314.693 Q1988.24 314.693 1986.3 317.054 Q1984.38 319.392 1984.38 323.79 L1984.38 337.447 L1980.09 337.447 L1980.09 311.521 L1984.38 311.521 L1984.38 315.549 Q1985.72 313.188 1987.87 312.054 Q1990.03 310.896 1993.1 310.896 Q1993.54 310.896 1994.08 310.966 Q1994.61 311.012 1995.26 311.128 L1995.28 315.503 Z" fill="#000000" fill-rule="nonzero" fill-opacity="1" /><path clip-path="url(#clip900)" d="M1997.59 322.795 L2016.67 322.795 L2016.67 326.128 L1997.59 326.128 L1997.59 322.795 Z" fill="#000000" fill-rule="nonzero" fill-opacity="1" /><path clip-path="url(#clip900)" d="M2018.84 302.887 L2048.08 302.887 L2048.08 306.822 L2035.81 306.822 L2035.81 337.447 L2031.11 337.447 L2031.11 306.822 L2018.84 306.822 L2018.84 302.887 Z" fill="#000000" fill-rule="nonzero" fill-opacity="1" /><path clip-path="url(#clip900)" d="M2056.34 324.415 Q2051.18 324.415 2049.19 325.595 Q2047.2 326.776 2047.2 329.623 Q2047.2 331.892 2048.68 333.234 Q2050.19 334.554 2052.76 334.554 Q2056.3 334.554 2058.43 332.054 Q2060.58 329.531 2060.58 325.364 L2060.58 324.415 L2056.34 324.415 M2064.84 322.656 L2064.84 337.447 L2060.58 337.447 L2060.58 333.512 Q2059.12 335.873 2056.95 337.007 Q2054.77 338.119 2051.62 338.119 Q2047.64 338.119 2045.28 335.896 Q2042.94 333.651 2042.94 329.901 Q2042.94 325.526 2045.86 323.304 Q2048.8 321.082 2054.61 321.082 L2060.58 321.082 L2060.58 320.665 Q2060.58 317.725 2058.64 316.128 Q2056.71 314.508 2053.22 314.508 Q2051 314.508 2048.89 315.04 Q2046.78 315.572 2044.84 316.637 L2044.84 312.702 Q2047.18 311.799 2049.38 311.359 Q2051.58 310.896 2053.66 310.896 Q2059.28 310.896 2062.06 313.813 Q2064.84 316.73 2064.84 322.656 Z" fill="#000000" fill-rule="nonzero" fill-opacity="1" /><path clip-path="url(#clip900)" d="M2088.64 315.503 Q2087.92 315.086 2087.06 314.901 Q2086.23 314.693 2085.21 314.693 Q2081.6 314.693 2079.65 317.054 Q2077.73 319.392 2077.73 323.79 L2077.73 337.447 L2073.45 337.447 L2073.45 311.521 L2077.73 311.521 L2077.73 315.549 Q2079.08 313.188 2081.23 312.054 Q2083.38 310.896 2086.46 310.896 Q2086.9 310.896 2087.43 310.966 Q2087.96 311.012 2088.61 311.128 L2088.64 315.503 Z" fill="#000000" fill-rule="nonzero" fill-opacity="1" /><path clip-path="url(#clip900)" d="M2104.89 324.415 Q2099.72 324.415 2097.73 325.595 Q2095.74 326.776 2095.74 329.623 Q2095.74 331.892 2097.22 333.234 Q2098.73 334.554 2101.3 334.554 Q2104.84 334.554 2106.97 332.054 Q2109.12 329.531 2109.12 325.364 L2109.12 324.415 L2104.89 324.415 M2113.38 322.656 L2113.38 337.447 L2109.12 337.447 L2109.12 333.512 Q2107.66 335.873 2105.49 337.007 Q2103.31 338.119 2100.16 338.119 Q2096.18 338.119 2093.82 335.896 Q2091.48 333.651 2091.48 329.901 Q2091.48 325.526 2094.4 323.304 Q2097.34 321.082 2103.15 321.082 L2109.12 321.082 L2109.12 320.665 Q2109.12 317.725 2107.18 316.128 Q2105.26 314.508 2101.76 314.508 Q2099.54 314.508 2097.43 315.04 Q2095.33 315.572 2093.38 316.637 L2093.38 312.702 Q2095.72 311.799 2097.92 311.359 Q2100.12 310.896 2102.2 310.896 Q2107.83 310.896 2110.6 313.813 Q2113.38 316.73 2113.38 322.656 Z" fill="#000000" fill-rule="nonzero" fill-opacity="1" /><path clip-path="url(#clip900)" d="M2143.7 321.799 L2143.7 337.447 L2139.45 337.447 L2139.45 321.938 Q2139.45 318.258 2138.01 316.429 Q2136.58 314.6 2133.7 314.6 Q2130.26 314.6 2128.27 316.799 Q2126.27 318.998 2126.27 322.795 L2126.27 337.447 L2121.99 337.447 L2121.99 311.521 L2126.27 311.521 L2126.27 315.549 Q2127.8 313.211 2129.86 312.054 Q2131.95 310.896 2134.65 310.896 Q2139.12 310.896 2141.41 313.674 Q2143.7 316.429 2143.7 321.799 Z" fill="#000000" fill-rule="nonzero" fill-opacity="1" /><path clip-path="url(#clip900)" d="M2156.41 304.16 L2156.41 311.521 L2165.19 311.521 L2165.19 314.832 L2156.41 314.832 L2156.41 328.906 Q2156.41 332.077 2157.27 332.98 Q2158.15 333.882 2160.81 333.882 L2165.19 333.882 L2165.19 337.447 L2160.81 337.447 Q2155.88 337.447 2154.01 335.619 Q2152.13 333.767 2152.13 328.906 L2152.13 314.832 L2149.01 314.832 L2149.01 311.521 L2152.13 311.521 L2152.13 304.16 L2156.41 304.16 Z" fill="#000000" fill-rule="nonzero" fill-opacity="1" /><path clip-path="url(#clip900)" d="M2180.83 314.508 Q2177.41 314.508 2175.42 317.193 Q2173.43 319.855 2173.43 324.507 Q2173.43 329.16 2175.39 331.845 Q2177.39 334.507 2180.83 334.507 Q2184.24 334.507 2186.23 331.822 Q2188.22 329.137 2188.22 324.507 Q2188.22 319.901 2186.23 317.216 Q2184.24 314.508 2180.83 314.508 M2180.83 310.896 Q2186.39 310.896 2189.56 314.508 Q2192.73 318.119 2192.73 324.507 Q2192.73 330.873 2189.56 334.507 Q2186.39 338.119 2180.83 338.119 Q2175.26 338.119 2172.08 334.507 Q2168.94 330.873 2168.94 324.507 Q2168.94 318.119 2172.08 314.508 Q2175.26 310.896 2180.83 310.896 Z" fill="#000000" fill-rule="nonzero" fill-opacity="1" /><path clip-path="url(#clip900)" d="M2199.79 301.429 L2204.05 301.429 L2204.05 337.447 L2199.79 337.447 L2199.79 301.429 Z" fill="#000000" fill-rule="nonzero" fill-opacity="1" /><path clip-path="url(#clip900)" d="M2224.75 324.415 Q2219.58 324.415 2217.59 325.595 Q2215.6 326.776 2215.6 329.623 Q2215.6 331.892 2217.08 333.234 Q2218.59 334.554 2221.16 334.554 Q2224.7 334.554 2226.83 332.054 Q2228.98 329.531 2228.98 325.364 L2228.98 324.415 L2224.75 324.415 M2233.24 322.656 L2233.24 337.447 L2228.98 337.447 L2228.98 333.512 Q2227.52 335.873 2225.35 337.007 Q2223.17 338.119 2220.02 338.119 Q2216.04 338.119 2213.68 335.896 Q2211.34 333.651 2211.34 329.901 Q2211.34 325.526 2214.26 323.304 Q2217.2 321.082 2223.01 321.082 L2228.98 321.082 L2228.98 320.665 Q2228.98 317.725 2227.04 316.128 Q2225.12 314.508 2221.62 314.508 Q2219.4 314.508 2217.29 315.04 Q2215.19 315.572 2213.24 316.637 L2213.24 312.702 Q2215.58 311.799 2217.78 311.359 Q2219.98 310.896 2222.06 310.896 Q2227.69 310.896 2230.46 313.813 Q2233.24 316.73 2233.24 322.656 Z" fill="#000000" fill-rule="nonzero" fill-opacity="1" /><polyline clip-path="url(#clip900)" style="stroke:#c271d2; stroke-linecap:round; stroke-linejoin:round; stroke-width:4; stroke-opacity:1; fill:none" points="1674.54,372.007 1824.54,372.007 "/>
<path clip-path="url(#clip900)" d="M1862.73 389.287 L1849.54 354.727 L1854.42 354.727 L1865.37 383.824 L1876.35 354.727 L1881.21 354.727 L1868.04 389.287 L1862.73 389.287 Z" fill="#000000" fill-rule="nonzero" fill-opacity="1" /><path clip-path="url(#clip900)" d="M1885.03 363.361 L1889.28 363.361 L1889.28 389.287 L1885.03 389.287 L1885.03 363.361 M1885.03 353.269 L1889.28 353.269 L1889.28 358.662 L1885.03 358.662 L1885.03 353.269 Z" fill="#000000" fill-rule="nonzero" fill-opacity="1" /><path clip-path="url(#clip900)" d="M1919.75 373.639 L1919.75 389.287 L1915.49 389.287 L1915.49 373.778 Q1915.49 370.098 1914.05 368.269 Q1912.62 366.44 1909.75 366.44 Q1906.3 366.44 1904.31 368.639 Q1902.32 370.838 1902.32 374.635 L1902.32 389.287 L1898.03 389.287 L1898.03 363.361 L1902.32 363.361 L1902.32 367.389 Q1903.85 365.051 1905.91 363.894 Q1907.99 362.736 1910.7 362.736 Q1915.16 362.736 1917.46 365.514 Q1919.75 368.269 1919.75 373.639 Z" fill="#000000" fill-rule="nonzero" fill-opacity="1" /><path clip-path="url(#clip900)" d="M1950.42 375.26 L1950.42 377.343 L1930.84 377.343 Q1931.11 381.741 1933.47 384.056 Q1935.86 386.347 1940.09 386.347 Q1942.55 386.347 1944.84 385.746 Q1947.15 385.144 1949.42 383.94 L1949.42 387.968 Q1947.13 388.94 1944.72 389.449 Q1942.32 389.959 1939.84 389.959 Q1933.64 389.959 1930 386.347 Q1926.39 382.736 1926.39 376.579 Q1926.39 370.213 1929.82 366.486 Q1933.27 362.736 1939.1 362.736 Q1944.33 362.736 1947.36 366.116 Q1950.42 369.473 1950.42 375.26 M1946.16 374.01 Q1946.11 370.514 1944.19 368.431 Q1942.29 366.348 1939.15 366.348 Q1935.58 366.348 1933.43 368.361 Q1931.3 370.375 1930.97 374.033 L1946.16 374.01 Z" fill="#000000" fill-rule="nonzero" fill-opacity="1" /><path clip-path="url(#clip900)" d="M1961.62 356 L1961.62 363.361 L1970.4 363.361 L1970.4 366.672 L1961.62 366.672 L1961.62 380.746 Q1961.62 383.917 1962.48 384.82 Q1963.36 385.722 1966.02 385.722 L1970.4 385.722 L1970.4 389.287 L1966.02 389.287 Q1961.09 389.287 1959.22 387.459 Q1957.34 385.607 1957.34 380.746 L1957.34 366.672 L1954.22 366.672 L1954.22 363.361 L1957.34 363.361 L1957.34 356 L1961.62 356 Z" fill="#000000" fill-rule="nonzero" fill-opacity="1" /></svg>
